<?xml version="1.0" encoding="UTF-8"?>
<svg version="1.1" xmlns="http://www.w3.org/2000/svg" width="64" height="64">
<path d="M0 0 C7.30533058 5.28288168 12.16170773 11.84418397 14.578125 20.55859375 C15.6057108 29.97414734 14.48595657 37.93923089 9.03515625 45.77734375 C3.21117131 52.92072115 -4.18986505 57.87845053 -13.5 58.89453125 C-24.63417321 59.03165161 -32.2786314 56.56256204 -40.44140625 48.84765625 C-46.40334974 41.95673143 -48.77350075 34.22515168 -48.62890625 25.2734375 C-47.89248675 15.6166158 -43.73989819 8.57630504 -36.76171875 1.9921875 C-26.25071807 -6.33212746 -11.36424697 -6.76355989 0 0 Z " fill="#F4D019" transform="translate(49.421875,5.44140625)"/>
<path d="M0 0 C7.30533058 5.28288168 12.16170773 11.84418397 14.578125 20.55859375 C15.6057108 29.97414734 14.48595657 37.93923089 9.03515625 45.77734375 C3.21117131 52.92072115 -4.18986505 57.87845053 -13.5 58.89453125 C-24.63417321 59.03165161 -32.2786314 56.56256204 -40.44140625 48.84765625 C-46.40334974 41.95673143 -48.77350075 34.22515168 -48.62890625 25.2734375 C-47.89248675 15.6166158 -43.73989819 8.57630504 -36.76171875 1.9921875 C-26.25071807 -6.33212746 -11.36424697 -6.76355989 0 0 Z M-36.9765625 13.4609375 C-41.27021696 19.69253871 -41.14860758 26.22922975 -40.421875 33.55859375 C-38.85636883 38.61824515 -35.89188163 42.59287189 -32.421875 46.55859375 C-33.411875 45.89859375 -34.401875 45.23859375 -35.421875 44.55859375 C-36.411875 45.87859375 -37.401875 47.19859375 -38.421875 48.55859375 C-37.03010868 49.52282401 -35.6332527 50.47970977 -34.234375 51.43359375 C-33.45707031 51.96726563 -32.67976563 52.5009375 -31.87890625 53.05078125 C-24.40402282 57.63791162 -16.04588605 57.84342254 -7.56640625 55.90625 C0.22411777 53.09199869 6.2710183 48.27765185 10.578125 41.18359375 C13.99416839 33.63355886 14.1570299 23.53925941 11.66796875 15.6875 C10.54394885 13.30294787 10.54394885 13.30294787 8.578125 10.55859375 C6.598125 11.54859375 6.598125 11.54859375 4.578125 12.55859375 C4.7946875 13.10386719 5.01125 13.64914063 5.234375 14.2109375 C7.34160304 19.91801345 7.86734992 24.48487045 7.578125 30.55859375 C7.48015625 29.68976562 7.3821875 28.8209375 7.28125 27.92578125 C6.03594943 18.32837861 3.76987338 13.16724897 -3.54296875 6.85546875 C-15.32708068 -1.27826339 -28.55827145 3.61349472 -36.9765625 13.4609375 Z " fill="#D3B737" transform="translate(49.421875,5.44140625)"/>
<path d="M0 0 C0.99 0.33 1.98 0.66 3 1 C3.87890625 4.01953125 3.87890625 4.01953125 4.5625 7.8125 C5.31660386 11.92385719 6.04790853 15.31458593 8 19 C7.9375 21.5625 7.9375 21.5625 7 24 C1.74501197 28.17307873 -5.42995894 29.56917764 -12 30 C-16.03461779 29.49820708 -20.01303403 28.7921558 -24 28 C-24.33 26.68 -24.66 25.36 -25 24 C-26.32 24.33 -27.64 24.66 -29 25 C-28.9278125 24.33613281 -28.855625 23.67226563 -28.78125 22.98828125 C-28.6884375 22.10527344 -28.595625 21.22226562 -28.5 20.3125 C-28.4071875 19.44238281 -28.314375 18.57226562 -28.21875 17.67578125 C-27.94772961 14.99724194 -27.94772961 14.99724194 -28.09375 12.29296875 C-28 10 -28 10 -26 8 C-25.60235737 6.01178687 -25.26224651 4.01055661 -25 2 C-24.34 2.33 -23.68 2.66 -23 3 C-22.375 5.5625 -22.375 5.5625 -22 8 C-21.38125 7.79375 -20.7625 7.5875 -20.125 7.375 C-19.42375 7.25125 -18.7225 7.1275 -18 7 C-17.34 7.66 -16.68 8.32 -16 9 C-16.33 9.33 -16.66 9.66 -17 10 C-14.69 10.33 -12.38 10.66 -10 11 C-10 10.34 -10 9.68 -10 9 C-9.34 9 -8.68 9 -8 9 C-7.67 8.01 -7.34 7.02 -7 6 C-4.525 6.495 -4.525 6.495 -2 7 C-1.67 8.32 -1.34 9.64 -1 11 C-0.67 7.37 -0.34 3.74 0 0 Z " fill="#9F7933" transform="translate(44,17)"/>
<path d="M0 0 C3.89026402 3.35977347 4.86848882 6.76328913 5.40625 11.8203125 C5.7839941 22.29876389 4.47169526 29.66295147 -2.60546875 37.859375 C-8.83645484 43.83875358 -16.37728927 46.21276265 -24.875 46.625 C-32.18020526 46.42518585 -38.00247196 44.13587923 -44 40 C-44.66 39.01 -45.32 38.02 -46 37 C-44.68 36.01 -43.36 35.02 -42 34 C-41.34 34.33 -40.68 34.66 -40 35 C-40.825 34.21625 -41.65 33.4325 -42.5 32.625 C-45 30 -45 30 -45 28 C-43.68 27.67 -42.36 27.34 -41 27 C-40.7525 27.78375 -40.505 28.5675 -40.25 29.375 C-38.7784331 32.46529048 -38.108951 32.7909635 -35 34 C-33 35 -31 36 -29 37 C-29.33 37.66 -29.66 38.32 -30 39 C-27.91695462 39.05418326 -25.83350232 39.09287551 -23.75 39.125 C-22.58984375 39.14820313 -21.4296875 39.17140625 -20.234375 39.1953125 C-17.12479359 39.00753584 -15.52945764 38.75026839 -13 37 C-12.0409375 35.5459375 -12.0409375 35.5459375 -11.0625 34.0625 C-8.90316432 30.85621368 -7.26687578 29.89134914 -4 28 C-2.67206394 25.93299345 -2.67206394 25.93299345 -2 24 C-1.34 24 -0.68 24 0 24 C0.33608711 15.94635715 0.0517291 9.50216736 -3 2 C-2.01 1.34 -1.02 0.68 0 0 Z " fill="#F9CD1B" transform="translate(57,16)"/>
<path d="M0 0 C1.65 0 3.3 0 5 0 C9.50578551 7.04028986 10.06383644 13.7384954 9 22 C7.625 25.3671875 7.625 25.3671875 6 28 C4.33927151 28.68132451 2.672233 29.34742127 1 30 C-0.36176581 31.98075027 -1.69593116 33.98079663 -3 36 C-6.45927395 38.40161088 -9.63237758 38.20735245 -13.75 38.125 C-14.92046875 38.10695312 -16.0909375 38.08890625 -17.296875 38.0703125 C-18.18890625 38.04710937 -19.0809375 38.02390625 -20 38 C-20 37.01 -20 36.02 -20 35 C-20.886875 34.608125 -21.77375 34.21625 -22.6875 33.8125 C-26.12129608 31.93363045 -28.36541769 29.86704545 -31 27 C-27.41819894 25.77170851 -24.74212728 26.2275593 -21.0625 26.9375 C-14.98555842 28.09757355 -10.7141149 28.57135623 -4.9375 26.125 C-4.10089844 25.77695312 -3.26429687 25.42890625 -2.40234375 25.0703125 C-0.23403491 24.10426921 1.88800552 23.08282396 4 22 C3.49725023 18.17910173 2.60908009 14.65842461 1.4375 11 C0.25747672 7.20788634 -0.31628102 4.00622625 0 0 Z " fill="#FBE02B" transform="translate(47,18)"/>
<path d="M0 0 C1.60893811 3.10086255 2.980352 6.24540934 4.25 9.5 C4.62640625 10.4384375 5.0028125 11.376875 5.390625 12.34375 C6 15 6 15 5.109375 17.34375 C4.74328125 17.8903125 4.3771875 18.436875 4 19 C2.68 18.01 1.36 17.02 0 16 C0.33 17.32 0.66 18.64 1 20 C-0.32 20.33 -1.64 20.66 -3 21 C-3.66 19.02 -4.32 17.04 -5 15 C-4.67 17.31 -4.34 19.62 -4 22 C-4.99 22 -5.98 22 -7 22 C-7.33 21.34 -7.66 20.68 -8 20 C-8 20.99 -8 21.98 -8 23 C-8.99 23 -9.98 23 -11 23 C-11.66 20.36 -12.32 17.72 -13 15 C-13.33 15.99 -13.66 16.98 -14 18 C-18.95 18 -23.9 18 -29 18 C-26.70984456 13.15544041 -26.70984456 13.15544041 -25 11 C-21.75 10.0625 -21.75 10.0625 -19 10 C-19 9.34 -19 8.68 -19 8 C-16.03 8 -13.06 8 -10 8 C-9.34 6.35 -8.68 4.7 -8 3 C-6.68 3 -5.36 3 -4 3 C-3.896875 3.639375 -3.79375 4.27875 -3.6875 4.9375 C-3.3471875 5.9584375 -3.3471875 5.9584375 -3 7 C-2.01 7.33 -1.02 7.66 0 8 C0 5.36 0 2.72 0 0 Z " fill="#F3D82C" transform="translate(45,22)"/>
<path d="M0 0 C5.8735495 2.5117987 9.31758417 7.97876609 11.875 13.6875 C14.56482548 21.88583034 13.92293492 30.94047224 10.32421875 38.71875 C5.18065394 47.57964042 -2.17640307 53.21766447 -12 56 C-21.60162455 57.04789303 -29.47222719 55.83848544 -37.44140625 50.3046875 C-43.97502667 44.98737533 -48.36381999 38.34451804 -50 30 C-50.64050118 22.97912167 -49.82991444 16.48867411 -47 10 C-44.8125 7.375 -44.8125 7.375 -43 6 C-45 12 -45 12 -46.05078125 14.8125 C-48.15466919 21.87740765 -48.1447932 30.38943256 -45.01953125 37.16796875 C-44.51486328 38.07482422 -44.51486328 38.07482422 -44 39 C-43.63261719 39.67675781 -43.26523437 40.35351562 -42.88671875 41.05078125 C-38.81879285 47.42266519 -33.11846104 50.72673855 -26 53 C-16.35107026 54.38450427 -8.23168155 52.9100747 -0.0078125 47.75 C5.51636613 43.57722987 9.27204371 37.96424024 10.28662109 31.04541016 C11.11759595 21.95910827 10.75290144 13.50986863 5 6 C2.3743391 3.56098872 2.3743391 3.56098872 0 2 C0 1.34 0 0.68 0 0 Z " fill="#8E6E68" transform="translate(51,8)"/>
<path d="M0 0 C1.1446875 -0.02578125 2.289375 -0.0515625 3.46875 -0.078125 C6.5 0.25 6.5 0.25 8.42578125 1.41015625 C9.97797984 4.0686491 9.57789343 5.92082348 9.1875 8.9375 C9.06761719 9.93136719 8.94773437 10.92523438 8.82421875 11.94921875 C8.71722656 12.70847656 8.61023438 13.46773437 8.5 14.25 C7.84 13.92 7.18 13.59 6.5 13.25 C5.875 11.1875 5.875 11.1875 5.5 9.25 C4.18 9.25 2.86 9.25 1.5 9.25 C1.17 9.91 0.84 10.57 0.5 11.25 C-0.16 11.25 -0.82 11.25 -1.5 11.25 C-1.5 11.91 -1.5 12.57 -1.5 13.25 C-4.14 13.25 -6.78 13.25 -9.5 13.25 C-9.5 12.26 -9.5 11.27 -9.5 10.25 C-10.82 10.25 -12.14 10.25 -13.5 10.25 C-14.16 8.6 -14.82 6.95 -15.5 5.25 C-14.695625 4.96125 -13.89125 4.6725 -13.0625 4.375 C-10.3673532 3.51737432 -10.3673532 3.51737432 -9.5 1.25 C-6.16334135 0.13778045 -3.51220338 0.04746221 0 0 Z " fill="#EBC81E" transform="translate(35.5,14.75)"/>
<path d="M0 0 C1.74216797 0.02707031 1.74216797 0.02707031 3.51953125 0.0546875 C4.39996094 0.07789063 5.28039062 0.10109375 6.1875 0.125 C5.8575 1.115 5.5275 2.105 5.1875 3.125 C4.341875 3.21136719 3.49625 3.29773438 2.625 3.38671875 C-6.39192144 4.50358743 -12.346486 6.05243355 -18.3125 13.0625 C-21.08673836 18.51363503 -20.10835667 25.19964831 -19.8125 31.125 C-17.8325 31.455 -15.8525 31.785 -13.8125 32.125 C-13.8125 33.115 -13.8125 34.105 -13.8125 35.125 C-17.09946233 35.92453138 -18.52273192 36.22158936 -21.8125 35.125 C-25.05172113 29.09222239 -24.88701345 21.26663727 -23.1953125 14.74609375 C-20.5002722 8.65244068 -15.3718987 3.94053222 -9.484375 0.9375 C-6.21484253 -0.05674379 -3.41130692 -0.06891529 0 0 Z " fill="#F6C913" transform="translate(32.8125,8.875)"/>
<path d="M0 0 C0.66 0.33 1.32 0.66 2 1 C2.625 3.5625 2.625 3.5625 3 6 C3.61875 5.79375 4.2375 5.5875 4.875 5.375 C5.57625 5.25125 6.2775 5.1275 7 5 C7.66 5.66 8.32 6.32 9 7 C8.67 7.33 8.34 7.66 8 8 C10.31 8.33 12.62 8.66 15 9 C15 8.34 15 7.68 15 7 C15.66 7 16.32 7 17 7 C17 8.65 17 10.3 17 12 C13.7 11.67 10.4 11.34 7 11 C7.33 11.99 7.66 12.98 8 14 C5.69 14 3.38 14 1 14 C0.87625 14.61875 0.7525 15.2375 0.625 15.875 C0 18 0 18 -2 20 C-0.68 20.33 0.64 20.66 2 21 C1.34 22.32 0.68 23.64 0 25 C0 24.01 0 23.02 0 22 C-1.32 22.33 -2.64 22.66 -4 23 C-3.9278125 22.33613281 -3.855625 21.67226563 -3.78125 20.98828125 C-3.6884375 20.10527344 -3.595625 19.22226562 -3.5 18.3125 C-3.4071875 17.44238281 -3.314375 16.57226562 -3.21875 15.67578125 C-2.94772961 12.99724194 -2.94772961 12.99724194 -3.09375 10.29296875 C-3 8 -3 8 -1 6 C-0.60235737 4.01178687 -0.26224651 2.01055661 0 0 Z " fill="#845A37" transform="translate(19,19)"/>
<path d="M0 0 C5.27214518 0.25717781 7.87129938 2.17233517 11.6796875 5.52734375 C13 7 13 7 13 9 C8.40734109 8.23455685 8.40734109 8.23455685 6.22265625 6.9765625 C-0.37321311 4.07855311 -9.41152867 5.54847578 -16 8 C-15.0547226 5.63680651 -14.41996722 4.26997892 -12.25 2.875 C-9.59738096 1.84342593 -7.58645051 1.80035657 -4.75 1.875 C-3.85796875 1.89304687 -2.9659375 1.91109375 -2.046875 1.9296875 C-1.03367187 1.96449219 -1.03367187 1.96449219 0 2 C0 1.34 0 0.68 0 0 Z " fill="#FBDA1A" transform="translate(38,10)"/>
<path d="M0 0 C4.05947817 3.35956814 5.68637461 7.01397663 7 12 C7.3125 15.375 7.3125 15.375 7 18 C6.34 18.66 5.68 19.32 5 20 C1.47649871 13.36270688 0.2798794 7.486774 0 0 Z " fill="#FDE72E" transform="translate(47,18)"/>
<path d="M0 0 C0 3 0 3 -1.1796875 4.46484375 C-10.07265167 12.18983797 -18.39522537 13.65481487 -30 13 C-30.33 12.34 -30.66 11.68 -31 11 C-30.10539062 10.97421875 -29.21078125 10.9484375 -28.2890625 10.921875 C-16.49195279 10.36849246 -8.58708251 8.2137311 0 0 Z " fill="#7D555A" transform="translate(56,51)"/>
<path d="M0 0 C1 3 1 3 -0.1875 6.4375 C-2.92263196 11.81344902 -2.92263196 11.81344902 -6 14 C-8.96732964 14.89841295 -11.94170235 15.50335337 -15 16 C-14.2575 15.278125 -13.515 14.55625 -12.75 13.8125 C-10.00440012 11.11637872 -10.00440012 11.11637872 -7.9375 8.3125 C-5.98377118 5.98063012 -4.64406062 5.32203031 -2 4 C-0.73195434 1.9664052 -0.73195434 1.9664052 0 0 Z " fill="#CFB131" transform="translate(55,40)"/>
<path d="M0 0 C0.33 1.32 0.66 2.64 1 4 C-3.95 4 -8.9 4 -14 4 C-11 0 -11 0 -8.6875 -0.8125 C-5.63195235 -1.02567774 -2.99023068 -0.62586223 0 0 Z " fill="#C49E27" transform="translate(30,36)"/>
<path d="M0 0 C1.60893811 3.10086255 2.980352 6.24540934 4.25 9.5 C4.62640625 10.4384375 5.0028125 11.376875 5.390625 12.34375 C6 15 6 15 5.109375 17.34375 C4.74328125 17.8903125 4.3771875 18.436875 4 19 C0.06153846 15.67692308 0.06153846 15.67692308 -0.25 12.25 C-0.1675 11.5075 -0.085 10.765 0 10 C-0.66 9.67 -1.32 9.34 -2 9 C-1.67 8.67 -1.34 8.34 -1 8 C-0.76924918 6.65252916 -0.58846937 5.29622435 -0.4375 3.9375 C-0.293125 2.638125 -0.14875 1.33875 0 0 Z " fill="#FAE12C" transform="translate(45,22)"/>
<path d="M0 0 C0.66 0.33 1.32 0.66 2 1 C2.625 3.5625 2.625 3.5625 3 6 C3.61875 5.79375 4.2375 5.5875 4.875 5.375 C5.57625 5.25125 6.2775 5.1275 7 5 C9 7 9 7 9 10 C5.37 10 1.74 10 -2 10 C-2 6.38970831 -1.03907418 3.44193324 0 0 Z " fill="#946B2F" transform="translate(19,19)"/>
<path d="M0 0 C1.5 1.375 1.5 1.375 3 3 C3 3.66 3 4.32 3 5 C3.598125 5.268125 4.19625 5.53625 4.8125 5.8125 C6.97224808 6.98493467 8.35790256 8.19369282 10 10 C9.34 10.66 8.68 11.32 8 12 C3.81402577 9.37159758 0.32705097 6.71846873 -3 3 C-3 2.34 -3 1.68 -3 1 C-2.01 0.67 -1.02 0.34 0 0 Z " fill="#FAD420" transform="translate(15,43)"/>
<path d="M0 0 C0.66 0 1.32 0 2 0 C2 1.65 2 3.3 2 5 C-1.3 4.67 -4.6 4.34 -8 4 C-7.67 4.99 -7.34 5.98 -7 7 C-9.31 7 -11.62 7 -14 7 C-14 6.67 -14 6.34 -14 6 C-12.35 6 -10.7 6 -9 6 C-9 5.34 -9 4.68 -9 4 C-10.423125 4.2784375 -10.423125 4.2784375 -11.875 4.5625 C-15 5 -15 5 -17 4 C-17.33 4.66 -17.66 5.32 -18 6 C-17.67 4.68 -17.34 3.36 -17 2 C-11.39 2 -5.78 2 0 2 C0 1.34 0 0.68 0 0 Z " fill="#785048" transform="translate(34,26)"/>
<path d="M0 0 C0.99 0.33 1.98 0.66 3 1 C2.67 1.66 2.34 2.32 2 3 C6.29 3.33 10.58 3.66 15 4 C10.71962763 6.14018619 7.65368205 6.69845839 3 6 C-0.12160386 4.88686994 -3.05962861 3.52463702 -6 2 C-4 1 -4 1 -1 1 C-0.67 0.67 -0.34 0.34 0 0 Z " fill="#AE8C36" transform="translate(25,52)"/>
<path d="M0 0 C2.31 0 4.62 0 7 0 C6.67 1.65 6.34 3.3 6 5 C3.69 5 1.38 5 -1 5 C-0.67 3.35 -0.34 1.7 0 0 Z " fill="#C5A22D" transform="translate(21,40)"/>
<path d="M0 0 C0.99 0.33 1.98 0.66 3 1 C2.0919838 2.13199353 1.17316174 3.25532363 0.25 4.375 C-0.26046875 5.00148438 -0.7709375 5.62796875 -1.296875 6.2734375 C-3.08199481 8.08312318 -4.67949644 9.00117455 -7 10 C-6.42424336 6.64749299 -5.40693737 5.06181371 -2.9375 2.75 C-2.38964844 2.22921875 -1.84179688 1.7084375 -1.27734375 1.171875 C-0.64505859 0.59179688 -0.64505859 0.59179688 0 0 Z " fill="#F1B50F" transform="translate(55,48)"/>
<path d="M0 0 C3.3 0 6.6 0 10 0 C10.33 0.99 10.66 1.98 11 3 C7.04 2.67 3.08 2.34 -1 2 C-0.67 1.34 -0.34 0.68 0 0 Z " fill="#FBDF24" transform="translate(20,37)"/>
<path d="M0 0 C2.97 0 5.94 0 9 0 C8.01 1.485 8.01 1.485 7 3 C3.875 3.1875 3.875 3.1875 1 3 C0.67 2.01 0.34 1.02 0 0 Z " fill="#F7F5F6" transform="translate(26,30)"/>
<path d="M0 0 C0.66 0 1.32 0 2 0 C2 1.65 2 3.3 2 5 C-1.3 4.67 -4.6 4.34 -8 4 C-6 2 -6 2 -2.875 1.875 C-1.92625 1.91625 -0.9775 1.9575 0 2 C0 1.34 0 0.68 0 0 Z " fill="#92725D" transform="translate(34,26)"/>
<path d="M0 0 C2.625 -0.1875 2.625 -0.1875 5 0 C5 0.99 5 1.98 5 3 C2.69 3 0.38 3 -2 3 C-1.34 2.01 -0.68 1.02 0 0 Z " fill="#F5D21B" transform="translate(19,26)"/>
<path d="M0 0 C2.97 0.495 2.97 0.495 6 1 C6 1.66 6 2.32 6 3 C3.36 3 0.72 3 -2 3 C-1.34 2.01 -0.68 1.02 0 0 Z " fill="#FBDF20" transform="translate(28,25)"/>
<path d="M0 0 C0.66 0.33 1.32 0.66 2 1 C-0.44580676 4.66871014 -3.12424268 6.06212134 -7 8 C-5.50902342 4.2047869 -3.24299151 2.38957269 0 0 Z " fill="#A68F6E" transform="translate(15,6)"/>
<path d="M0 0 C0.99 0.33 1.98 0.66 3 1 C2.67 1.99 2.34 2.98 2 4 C-0.3431213 3.74438677 -2.67843403 3.40729228 -5 3 C-5.33 2.34 -5.66 1.68 -6 1 C-5.38125 1.20625 -4.7625 1.4125 -4.125 1.625 C-3.073125 1.810625 -3.073125 1.810625 -2 2 C-1.34 1.34 -0.68 0.68 0 0 Z " fill="#CAA32B" transform="translate(25,52)"/>
<path d="M0 0 C2.64 0 5.28 0 8 0 C8 0.66 8 1.32 8 2 C5.69 2.33 3.38 2.66 1 3 C0.67 2.01 0.34 1.02 0 0 Z " fill="#E2DBE0" transform="translate(17,30)"/>
</svg>
